<svg id="visual" viewBox="0 0 1920 1080" width="1920" height="1080" xmlns="http://www.w3.org/2000/svg" xmlns:xlink="http://www.w3.org/1999/xlink" version="1.1"><g><g transform="translate(114 962)"><path d="M202.4 -64.6C229.5 17.4 195.8 120.3 126.6 169.5C57.4 218.7 -47.5 214.2 -111.7 164.9C-176 115.6 -199.6 21.5 -174.2 -58.2C-148.8 -138 -74.4 -203.5 6.6 -205.6C87.7 -207.8 175.4 -146.6 202.4 -64.6Z" stroke="#F7760E" fill="none" stroke-width="20"></path></g><g transform="translate(692 561)"><path d="M160.6 -46C182 13.4 154.9 94.7 100.3 133.3C45.7 171.8 -36.5 167.6 -93.5 126.6C-150.5 85.7 -182.4 8 -162.6 -49.3C-142.8 -106.6 -71.4 -143.7 -0.9 -143.4C69.7 -143.1 139.3 -105.5 160.6 -46Z" stroke="#F7760E" fill="none" stroke-width="20"></path></g><g transform="translate(1912 787)"><path d="M103.5 -29.8C119.5 15.6 107.7 73.8 69.5 103.4C31.3 132.9 -33.3 133.9 -69.5 105.3C-105.8 76.7 -113.6 18.6 -97.3 -27.2C-80.9 -73.1 -40.5 -106.7 1.6 -107.2C43.7 -107.8 87.5 -75.2 103.5 -29.8Z" stroke="#F7760E" fill="none" stroke-width="20"></path></g><g transform="translate(1352 992)"><path d="M108.5 -34.1C121.9 6 101.2 58.4 62.2 87.1C23.2 115.7 -34 120.7 -72.4 94.1C-110.8 67.6 -130.3 9.4 -115.1 -33.2C-99.9 -75.8 -49.9 -103 -1.2 -102.6C47.6 -102.2 95.1 -74.3 108.5 -34.1Z" stroke="#F7760E" fill="none" stroke-width="20"></path></g><g transform="translate(176 261)"><path d="M158.3 -49.5C179.6 14 153.6 94.9 98 135.3C42.4 175.8 -42.8 176 -92 137.6C-141.3 99.2 -154.6 22.3 -133.3 -41.2C-111.9 -104.8 -56 -155.1 6.3 -157.1C68.5 -159.2 137.1 -113 158.3 -49.5Z" stroke="#F7760E" fill="none" stroke-width="20"></path></g><g transform="translate(1537 304)"><path d="M148.1 -45.8C169.3 17.2 148.3 96.2 92.2 140C36.2 183.8 -55 192.4 -114.8 150.7C-174.6 109 -203.1 16.9 -178.7 -50.4C-154.4 -117.6 -77.2 -160 -6.9 -157.8C63.4 -155.5 126.9 -108.7 148.1 -45.8Z" stroke="#F7760E" fill="none" stroke-width="20"></path></g><g transform="translate(902 11)"><path d="M131.3 -46.6C146.3 3.4 118.1 63.5 72.2 96.1C26.3 128.7 -37.3 133.8 -77.3 105.1C-117.4 76.3 -133.8 13.7 -117 -38.8C-100.2 -91.4 -50.1 -133.9 4 -135.2C58.2 -136.5 116.3 -96.6 131.3 -46.6Z" stroke="#F7760E" fill="none" stroke-width="20"></path></g></g></svg>